<svg id="Layer_2" data-name="Layer 2" xmlns="http://www.w3.org/2000/svg" viewBox="0 0 2416.94 2500.55"><defs><style>.cls-1{fill:#fff;}</style></defs><path class="cls-1" d="M1144.24,1875.88c.38-7.74.39-15.52,1.22-23.22.92-8.56,1-16-6.27-22.88-3.38-3.21-3.92-10.11-4.42-15.45-.58-6.12.28-12.39.6-18.58.69-13.54-3.39-25.25-14.15-33.79-12.68-10.06-14.2-21.89-10.4-37.23a86.74,86.74,0,0,0-4.24-53.89c-5.21-12.71-5.85-24.55-2.11-37.8,4.88-17.33,9.52-35,20.22-49.31A229.67,229.67,0,0,1,1163,1544c10.41-8.5,30.87-3,37.94,7.68a22.42,22.42,0,0,1,3.33,12c-.12,10.2-2.11,20.43-1.62,30.57.4,8.16,3.31,16.21,5.13,24.3,4.6,20.37,5.77,41.78,19.1,59.44,9.19,12.17,19.4,21.66,35.77,23.36,19.18,2,36.39-3.38,54.35-9.09,35.66-11.33,56.62-37.16,73.85-67.85,21.05-37.5,43.7-74.2,56.28-115.81,1-3.25,1.78-6.57,2.78-9.81,5-15.93-5-27.17-21.78-29.1-25.19-2.9-45.65,7-63.85,21.43-25.06,19.89-53.94,27.34-84.49,29.51-20.46,1.45-41.69,2.81-61.56-1-18.24-3.52-35.44-2.28-53.19-.66-11.65,1.06-20.38-4.41-30.49-10.11-20.47-11.53-25-28.77-26.9-49.34-.45-4.93-5-10.56-9.25-13.88-19.16-15-28.4-33.55-24.09-58.23,1.89-10.81,2.77-21.82,3.74-32.77,1.1-12.45-10.9-21.59-23.14-19.13-21.35,4.29-41.46,1.39-58.28-13.81-10.82-9.77-23.34-14-37.64-12a45,45,0,0,0-15.46,5.07c-17.17,9.63-34.39,17.38-54.62,9.47-2.28-.9-5.47,0-8.11.64-10.51,2.46-20.91,5.38-31.46,7.67a35.82,35.82,0,0,1-27.66-4.91c-5.47-3.51-11.15-7-15.8-11.39-7.88-7.52-15.78-10.88-27.41-9.23-6.34.9-14.38-4.24-20.42-8.43-10.12-7-19-15.76-28.88-23.16-7.28-5.46-11.29-12-11.24-21.16.07-12.31-4.83-20.7-17.16-25.65-11.87-4.77-22-12.33-17.74-28.29.54-2-.61-5-2-6.77-12.41-15.22-12-30.75-4.69-48.52,6.62-16.07,10.46-33.41,14.12-50.48,1.07-5-1.69-11.52-4.32-16.48-9.33-17.61-4-37.58,13.34-47.17a11.4,11.4,0,0,1,5.35-1.14c9.3,0,15.7-5.9,16.41-15.34,1.75-23.18,16.69-41.17,38.66-49.09a89.71,89.71,0,0,0,25.47-14.87c3.45-2.8,5.6-10,4.87-14.66-4.3-27.62,8.75-48.38,33.58-55.29,10.56-2.93,16.23-9.9,18.9-20.65,5.08-20.5,33.18-37.24,53.1-32.08C919.53,834,941.5,832,962,817.06a149.64,149.64,0,0,1,29.76-16.39c5.71-2.41,12.78-1.6,19.24-2.27,8.76-.91,14.92-4.56,17.51-13.84,9.41-33.65,25.94-62.56,54-84.71,13.29-10.48,23.46-24.88,36.63-35.54,21.33-17.26,45.78-27.75,73.85-29.71,20.37-1.42,40.42-4.83,61.1-2.15A154.11,154.11,0,0,1,1317,654.81c30.62,19,45,48.32,53.63,81.21,5.8,22,3.57,44-8.38,63.61a247.51,247.51,0,0,1-27.56,37.19c-14.9,16.48-34.21,21.06-56,16.59-9.9-2-20.78-1-29.94-4.57-28.5-11.16-55.18-54-33.75-91,3.41-5.89,6.73-11.86,9.63-18,4.14-8.82,1.31-13.1-7.07-17.45-14.84-7.71-29-1.62-42.2,2.41-33.69,10.26-62.3,28.56-79.77,60.63-8.48,15.57-4.19,37.87,7.12,53,13.92,18.65,33.7,25.23,54.7,30.18,7.08,1.67,12.15,5.08,15.62,11.83,1.2,2.33,6.14,3.88,9.28,3.74,3.46-.15,7.06-2.26,10.17-4.21,19-11.9,38.71-10,57.45-.81,9.94,4.89,19.59,6.59,30.19,6.93,8.62.27,17.2,2,25.82,2.24,10.77.31,21.84,1.23,32.28-.77,14.64-2.81,28.36-.72,42.19,3.12,10.58,2.94,15.5,11.36,17.57,21,4,18.69,6.63,37.68,10.85,56.31,1,4.43,5.29,9.19,9.36,11.67,25.49,15.51,41,38.69,52.66,65.3,9.63,22,17.24,44.4,15.19,69-.23,2.84,1.78,6.63,3.94,8.79,18.36,18.43,14.82,30.91,4,48.92-10.63,17.76-25.12,32.66-45.41,41-9.87,4-19.05,10.2-27.76,16.48-26.42,19-56.35,29.18-87.49,37.16-36.84,9.43-73.47,19.72-110,30.35-14.1,4.1-23.7,14.78-29.88,27.67-4.44,9.29,6.18,26.56,16.54,26.26,12.52-.35,25.39-1.91,37.33-5.51,16.81-5.07,32.75-13,49.35-18.8,26.25-9.24,52.68-18,79.14-26.59,28.44-9.27,57-18.13,85.51-27.24,4.12-1.32,8.11-3,12.18-4.52,13.93-5.06,27.87-10.05,41.78-15.16a98.79,98.79,0,0,0,9.33-4c15.49-7.56,31.07-15,46.36-22.89,6.81-3.54,13-8.3,19.53-12.35,25.36-15.71,51.93-19.66,79.48-6.59,15.73,7.45,23.73,31.12,15.8,46.89-5.81,11.55-13.81,22-19.94,33.4-2.36,4.39-4,10.51-2.9,15.13,2.17,9.16.37,15.53-7.39,20.87-10.18,7-20.86,13.65-29.75,22.1s-16.14,18.66-23.49,28.57c-4.13,5.57-7,12.09-10.41,18.19a3.74,3.74,0,0,0-.62,1.74c.36,20.65-14.8,28.73-29.48,38-4.28,2.7-7,9.77-8.05,15.29-1.69,8.82-5,15.73-12.75,20.5-18.7,11.51-22.39,23.47-13.6,44,3.81,8.91,9.23,17.35,11.52,26.6,1.92,7.74,1.23,16.47.1,24.53-1,6.9-4.28,13.46-6.39,20.22-.78,2.52-2.13,5.51-1.46,7.76,3.92,13.13.27,25.4-7.19,35.21-10.8,14.2-21.37,29.75-40.85,34a5.6,5.6,0,0,0-3.18,1.78c-11.33,15.7-25.06,30.21-18.86,52.64a129.58,129.58,0,0,1,4.6,33.81c.06,20.49-8.11,29.54-28.12,33.81-10.47,2.24-21.15,3.64-31.47,6.42-3.07.83-6.82,4.68-7.5,7.74-2,9.29-2.31,19-4,28.33-1.43,7.79-3.08,15.76-6.17,23s-8.94,10.58-17.8,12.35c-12.11,2.43-23.28,9.47-34.85,14.54a25,25,0,0,1-3.36,1.59c-15.48,4-22.17,13.82-26.17,29.72-5.63,22.41-34.89,42.36-57.93,35.28-2.37-.73-5.38.34-8,.89-16.54,3.43-32.94,7.85-49.63,10.19-15.91,2.23-27.41-6.12-34.79-19.87C1146.5,1914.59,1140.26,1896.27,1144.24,1875.88ZM936.71,1144.94l.41,0c0,6.51.49,13.06-.09,19.52-1.86,20.64,6.77,36.9,23.07,47.76,40.09,26.74,84.44,36.3,131.8,26,18.54-4,36.8-10.52,54.28-18,26.27-11.24,42-35.22,60.86-55.06,14.69-15.42,16.12-34.56,10.67-54.73-6.28-23.21-5.06-46.41.21-69.83,3.82-17,9.19-34.07,2.2-52-6.49-16.61-26.25-32.75-41.66-32-23.69,1.09-45.4-5.93-65.4-17.55-23.21-13.49-45.55-28.46-68.28-42.77-14.93-9.4-31-13.66-48.72-11.16-8.78,1.24-16.63,5.33-17.84,13.83-1.54,10.83-2.4,22.88.76,33.07,12.73,41,11.38,79.18-12.74,116.47-11.58,17.9-20,38.33-26.89,58.61C935.42,1118.71,937.4,1132.28,936.71,1144.94Z"/></svg>
